<svg width="64" height="65" viewBox="0 0 64 65" fill="none" xmlns="http://www.w3.org/2000/svg">
<rect y="0.259766" width="64" height="64" rx="32" fill="#FFC960"/>
<path d="M45.8408 26.1919C45.5547 25.9531 45.2072 25.7995 44.838 25.7486C44.4688 25.6978 44.0927 25.7518 43.7527 25.9044L37.4297 28.7147L33.7482 22.0879C33.575 21.7761 33.3215 21.5163 33.0141 21.3354C32.7067 21.1545 32.3566 21.0591 31.9999 21.0591C31.6432 21.0591 31.293 21.1545 30.9856 21.3354C30.6782 21.5163 30.4248 21.7761 30.2516 22.0879L26.5699 28.7146L20.246 25.9039C19.9057 25.7527 19.53 25.6995 19.1612 25.7503C18.7923 25.8011 18.4449 25.9538 18.1582 26.1913C17.8714 26.4288 17.6567 26.7416 17.538 27.0945C17.4194 27.4475 17.4017 27.8265 17.4868 28.189L20.6675 41.7306C20.728 41.9928 20.8413 42.2398 21.0005 42.4567C21.1598 42.6736 21.3615 42.8558 21.5935 42.9921C21.8267 43.1293 22.0851 43.2184 22.3534 43.2538C22.6216 43.2893 22.8943 43.2705 23.1552 43.1985C28.9414 41.6011 35.0522 41.6005 40.8387 43.1968C41.0995 43.2687 41.372 43.2874 41.6402 43.252C41.9083 43.2165 42.1666 43.1276 42.3997 42.9904C42.6315 42.8542 42.8332 42.6722 42.9925 42.4554C43.1517 42.2387 43.265 41.9918 43.3257 41.7299L46.5118 28.1901C46.5985 27.8276 46.5816 27.448 46.4629 27.0947C46.3443 26.7414 46.1287 26.4286 45.8408 26.1919V26.1919ZM36.9944 37.3144C36.9808 37.4451 36.9416 37.5718 36.879 37.6873C36.8163 37.8028 36.7316 37.9048 36.6295 37.9874C36.5274 38.0701 36.41 38.1318 36.284 38.169C36.158 38.2063 36.0259 38.2183 35.8953 38.2043C33.3055 37.9324 30.6943 37.9324 28.1045 38.2043C27.8412 38.2311 27.5781 38.1524 27.3727 37.9856C27.1674 37.8187 27.0365 37.5773 27.0088 37.3141C26.9811 37.0509 27.0589 36.7875 27.225 36.5816C27.3912 36.3756 27.6322 36.2439 27.8953 36.2153C30.6242 35.9287 33.3756 35.9287 36.1045 36.2153C36.2351 36.2291 36.3617 36.2684 36.4771 36.331C36.5925 36.3937 36.6945 36.4785 36.7771 36.5806C36.8597 36.6826 36.9215 36.8 36.9587 36.9259C36.996 37.0518 37.0081 37.1838 36.9944 37.3144V37.3144Z" fill="#543700"/>
</svg>
