<svg width="64" height="65" viewBox="0 0 64 65" fill="none" xmlns="http://www.w3.org/2000/svg">
<rect y="0.271484" width="64" height="64" rx="32" fill="#A5BEFF"/>
<path d="M42.2873 23.0422L32.2873 20.0422C32.138 19.9974 31.9803 19.9881 31.8268 20.0151C31.6732 20.0421 31.5281 20.1046 31.403 20.1977C31.278 20.2908 31.1764 20.4118 31.1064 20.5511C31.0364 20.6904 31 20.8441 31 21V26.9775C30.9996 26.9928 30.9996 27.008 31 27.0233V34.5327C29.9763 33.6175 28.6695 33.0814 27.2981 33.0139C25.9266 32.9464 24.5735 33.3516 23.4649 34.1618C22.3563 34.972 21.5593 36.1381 21.2072 37.4653C20.855 38.7925 20.969 40.2004 21.5301 41.4536C22.0911 42.7069 23.0653 43.7296 24.2898 44.351C25.5143 44.9723 26.915 45.1546 28.2577 44.8673C29.6005 44.5801 30.8039 43.8407 31.6671 42.7728C32.5302 41.7049 33.0007 40.3731 33 39V28.344L41.7126 30.9578C41.8619 31.0026 42.0197 31.0119 42.1732 30.9849C42.3267 30.9579 42.4718 30.8954 42.5969 30.8023C42.722 30.7092 42.8236 30.5882 42.8936 30.4489C42.9635 30.3096 43 30.1559 43 30V24C43 23.7849 42.9307 23.5756 42.8023 23.4031C42.6739 23.2305 42.4933 23.104 42.2873 23.0422Z" fill="#0033B6"/>
</svg>
