<svg width="64" height="64" viewBox="0 0 64 64" fill="none" xmlns="http://www.w3.org/2000/svg">
<rect width="64" height="64" rx="32" fill="#FFB4E9"/>
<path d="M34 43H30C29.7348 43 29.4804 43.1054 29.2929 43.2929C29.1054 43.4804 29 43.7348 29 44C29 44.2652 29.1054 44.5196 29.2929 44.7071C29.4804 44.8946 29.7348 45 30 45H34C34.2652 45 34.5196 44.8946 34.7071 44.7071C34.8946 44.5196 35 44.2652 35 44C35 43.7348 34.8946 43.4804 34.7071 43.2929C34.5196 43.1054 34.2652 43 34 43Z" fill="#D10094"/>
<path d="M43.4536 33.9822L39.674 29.4467C39.5531 27.9527 39.2172 26.4841 38.6765 25.0862C37.2243 21.3097 34.6569 18.8364 33.2558 17.6981C32.9005 17.4121 32.4585 17.2554 32.0024 17.2539C31.5463 17.2524 31.1032 17.4061 30.746 17.6897C29.3266 18.8268 26.7263 21.2984 25.2595 25.0754C24.7007 26.5049 24.3595 28.0102 24.2473 29.5409L20.5463 33.9822C20.3514 34.2176 20.2126 34.4943 20.1405 34.7913C20.0684 35.0883 20.0649 35.3978 20.1303 35.6964L21.6757 42.6505C21.749 42.9823 21.9056 43.29 22.1309 43.5444C22.3561 43.7988 22.6425 43.9916 22.963 44.1045C23.2835 44.2174 23.6275 44.2467 23.9625 44.1896C24.2975 44.1326 24.6124 43.991 24.8774 43.7784L28.3507 40.9998H35.6492L39.1224 43.7784C39.4754 44.0625 39.9148 44.2176 40.368 44.218C40.5957 44.2178 40.8217 44.1789 41.0363 44.1031C41.3572 43.9912 41.6441 43.799 41.8696 43.5447C42.095 43.2904 42.2515 42.9826 42.3242 42.6506L43.8696 35.6965C43.935 35.3979 43.9315 35.0884 43.8594 34.7913C43.7873 34.4943 43.6485 34.2176 43.4536 33.9822V33.9822ZM23.6281 42.2167L22.0827 35.2625L24.3235 32.5735C24.6076 34.9099 25.4051 37.3009 26.7161 39.7463L23.6281 42.2167ZM31.9999 29.4998C31.7033 29.4998 31.4133 29.4118 31.1666 29.247C30.9199 29.0822 30.7277 28.8479 30.6141 28.5738C30.5006 28.2997 30.4709 27.9981 30.5288 27.7072C30.5866 27.4162 30.7295 27.1489 30.9393 26.9392C31.1491 26.7294 31.4163 26.5865 31.7073 26.5286C31.9983 26.4708 32.2999 26.5005 32.574 26.614C32.8481 26.7275 33.0823 26.9198 33.2471 27.1665C33.412 27.4131 33.4999 27.7031 33.4999 27.9998C33.4999 28.3976 33.3419 28.7792 33.0606 29.0605C32.7793 29.3418 32.3978 29.4998 31.9999 29.4998ZM40.3718 42.2167L37.2781 39.7417C38.5723 37.279 39.3532 34.8675 39.621 32.5071L41.9172 35.2625L40.3718 42.2167Z" fill="#D10094"/>
</svg>
